<?xml version="1.0" encoding="utf-8"?>
<!-- Generator: Adobe Illustrator 15.1.0, SVG Export Plug-In . SVG Version: 6.00 Build 0)  -->
<!DOCTYPE svg PUBLIC "-//W3C//DTD SVG 1.1//EN" "http://www.w3.org/Graphics/SVG/1.1/DTD/svg11.dtd">
<svg version="1.1" id="Layer_2" xmlns="http://www.w3.org/2000/svg" xmlns:xlink="http://www.w3.org/1999/xlink" x="0px" y="0px"
	 width="527.473px" height="950px" viewBox="0 0 527.473 950" enable-background="new 0 0 527.473 950" xml:space="preserve">
<path fill="#231F20" d="M434.875,0.293c2.453-2.523,12.71,11.999,14.192,14.46c1.476,2.463,10.437,15.094,20.288,33.811
	c9.851,18.717,10.833,27.583,8.373,37.435c0,0-13.795,93.095-16.256,99.986c5.908,1.972,12.318,13.795,10.834,18.718
	c4.434,5.418,10.652,18.718,6.562,26.599c4.271,6.896,3.811,15.268,1.341,18.224c-9.871-1.969-36.467-10.835-39.916-10.344
	c-2.956,2.957-7.881,7.883-9.849,13.302c-1.976,5.416-20.685,28.074-29.066,36.94c-8.372,8.865-17.241,20.687-13.787,30.538
	c3.447,9.852,13.298,42.358,15.76,64.032c2.464,21.672-0.988,40.883-4.929,49.751c-3.938,8.863-7.881,32.016-7.881,37.43
	c7.39,5.42,121.17,90.633,136.932,102.452c-2.464,7.884-6.893,25.616-28.569,25.616c-21.67,0-27.087-10.345-35.462-10.839
	c-8.37-0.491-19.7-2.462-27.578-6.894c-7.887-4.432-26.105,6.894-35.465-4.929c-9.36-11.821-29.06-16.253-32.51-15.762
	c0.982,5.911,5.908,31.033,8.864,38.423c2.955,7.391,17.241,61.073,17.241,86.193c-0.497,4.929,8.37,29.557,15.765,44.822
	c7.384,15.271,23.149,60.091,26.596,67.973c3.443,7.881,19.206,26.107,24.132,33.003c4.925,6.899,18.72,47.284,23.149,61.073
	c4.435,13.798,1.479,37.933-2.958,47.287c-3.444,1.479-17.236-0.491-20.68,0c-1.482-2.461-9.86-22.164-12.313-43.837
	c-1.976-7.882-6.901-9.36-12.315-21.674c-5.422-12.312-6.901-19.697-5.914-26.596c-4.435-5.911-21.176-36.447-42.853-58.121
	c-21.673-21.673-41.864-54.18-40.394-101.469c0.497-10.338-5.414-27.085-9.357-33.001c-3.94-5.908-27.579-36.939-27.579-40.389
	c-4.928,10.346-29.554,48.767-38.914,62.559c-9.355,13.789-20.194,22.658-24.132,28.565c-3.943,5.911-45.317,79.794-48.272,118.706
	c-1.479,12.312-1.479,27.584-3.449,36.45c-1.973,8.863-18.224,66.989-43.346,88.66c-7.387,2.459-15.268-3.943-15.759-6.901
	c-0.491-2.953,0.982-24.129,4.435-38.412c3.449-14.286,7.878-22.165,3.449-36.453c-4.438-14.283,11.322-34.969,19.206-29.061
	c3.943-10.343,8.372-19.7,7.39-38.912c-0.982-19.206,0-75.853,30.54-116.241c8.373-10.836,31.031-34.479,31.031-50.239
	c0-15.763,5.417-34.974,9.357-43.347c3.938-8.372,24.626-54.677,17.241-72.409c-5.914-1.967-33.994-17.729-40.391-16.744
	c-6.405,0.982-22.661-3.94-25.125-11.325c-5.412-1.973-7.876-1.479-14.281-0.494c-6.402,0.985-8.373-6.896-12.315-7.39
	c-3.938-0.494-19.207-4.926-24.132-17.732c-4.926-12.807-19.703-22.659-13.795-45.315c10.348,0,57.632,2.954,64.037,3.445
	c-4.44-2.951-5.914-7.383-4.44-9.849c-8.858,0-15.757-7.878-13.298-9.85c-6.396,5.418-23.641,5.909-33.486,6.897
	c-9.852,0.983-48.275,0.49-52.707,0c-4.438-0.496-15.76,3.94-22.661,1.969c-6.893-1.969-45.311-14.286-56.639-18.715
	c-4.438-1.482-11.331-13.795-7.884-15.274c3.446-1.475,6.405,4.436,18.224,8.374c0-9.359-1.477-29.551,2.461-29.551
	c3.943,2.463,6.408,9.852,13.304,18.716c6.896,8.866,7.881,9.853,12.807,10.835c4.926,0.987,14.281,6.404,19.206,8.866
	c6.405,0.494,16.745-3.448,21.67-4.432c4.926-0.988,63.052-13.298,72.903-13.298c4.926-6.897,17.241-33.986,37.43-29.064
	c5.42,0.986,17.242-9.356,19.706-14.776c2.461-5.416,25.611-23.639,36.447-28.565c10.839-4.926,18.224-16.746,18.224-21.181
	c0-4.432-3.446-14.777-6.402-13.298c-2.956,1.478-9.846,9.356-18.715,1.478c-8.869-7.882-13.795-10.344-16.748-8.375
	c-2.956,1.972-8.866,15.764-30.048-11.329c-14.777-16.746-3.938-32.51,0.497-31.523c0,0-2.467-13.298,14.772-31.031
	c17.241-17.732,31.527-21.181,40.882-19.703c9.36,1.479,22.664,8.867,25.614,10.346c5.422,1.966,19.206-3.451,20.685-1.973
	c1.482,1.482,0.985,3.448,0.494,7.39c1.479,2.462,12.804,16.254,19.211,18.717c6.405,2.462,0.982,6.402-5.414,13.298
	c-6.405,6.896-13.797,19.701-8.38,32.019c5.422,12.31,18.717,27.581,28.572,28.072c9.852,0.493,9.852-2.463,10.345-6.401
	c0.489-3.942,9.357-12.808,18.712-16.749c9.36-3.939,23.149-13.792,26.105-20.197c2.958-6.401,14.286-18.221,15.268-21.176
	c-2.461-4.926-4.917-10.346,1.479-15.763c6.408-5.418,13.304-22.164,13.304-31.524s5.908-5.911,9.36-2.463
	c2.956-8.372,25.608-66.001,24.623-89.644c-1.474-7.389-11.822-13.793-10.343-24.628c1.479-10.838-6.656-19.69-11.584-23.14
	c-4.928-3.448-12.445-7.005-13.958-9.193c-2.933-4.228-2.042-7.071,2.393-5.101c4.429,1.969,15.266,4.43,20.688,8.866
	C442.753,14.085,431.823,3.424,434.875,0.293z"/>
</svg>
