<?xml version="1.0" encoding="utf-8"?>
<!-- Generator: Adobe Illustrator 15.1.0, SVG Export Plug-In . SVG Version: 6.00 Build 0)  -->
<!DOCTYPE svg PUBLIC "-//W3C//DTD SVG 1.1//EN" "http://www.w3.org/Graphics/SVG/1.1/DTD/svg11.dtd">
<svg version="1.1" id="Layer_2" xmlns="http://www.w3.org/2000/svg" xmlns:xlink="http://www.w3.org/1999/xlink" x="0px" y="0px"
	 width="950px" height="500.527px" viewBox="0 0 950 500.527" enable-background="new 0 0 950 500.527" xml:space="preserve">
<path fill="#231F20" d="M535.491,69.302c-4.578-4.124-24.727-15.572-54.495-8.704c0,0-22.441,7.787-25.649,26.563
	c-0.915,5.954-1.832,8.243-6.871,9.617c-5.037,1.376-13.738,4.123-7.783,10.533c5.954,6.413,1.829,8.703,1.375,11.909
	c-0.461,3.205-19.694,20.608,5.951,28.394c25.644,7.784,16.485,38.012,6.412,40.76c-5.037,0-12.363-1.833-16.944-4.122
	c-4.583-2.288-41.678-28.854-53.584-49.918c-6.414-10.536-15.114-15.572-16.945-19.238c-1.833-3.661-7.785-19.233-27.936-39.384
	c-20.151-20.151-47.629-48.089-52.209-54.04c-5.495-4.582-72.36-20.152-76.027-21.525c-3.662-1.374,0,7.327,16.031,10.533
	c-15.112-1.376-21.984,1.831-13.739,5.039c8.244,3.205,18.32,5.037,24.272,4.577c-8.243,1.377-13.739,5.958-2.748,7.789
	c10.992,1.831,11.907,3.204,17.864,4.578c5.954,1.373,0.456,8.244,23.354,9.16c5.954,12.823,30.685,57.708,59.537,85.186
	c10.076,10.53,21.526,37.553,26.565,42.133c-10.993,1.373-68.7-2.748-75.108-3.665c-6.413-0.915-16.487,3.665-19.693,5.038
	c-3.206,1.374-12.367-5.953-8.245,4.122c-5.495,2.747-23.815,9.16-25.646,10.991c-1.832,1.831-3.208,4.122,0.458,5.495
	c-4.581,6.868-16.945,22.9-11.45,22.441c5.497-0.458,6.411-5.955,9.16-5.955c2.749,0,9.618-3.662,19.235-14.196
	c3.206-0.916,5.035,0.458,3.206,2.748c-1.834,2.292-6.411,10.99-3.664,12.824c2.747,1.831,22.439-12.824,27.018-16.488
	c4.581-3.664,8.243-0.916,10.993-5.039c5.495,2.75,84.726,24.75,97.546,26.114c12.824,1.368,17.407,2.283,21.069,7.778
	c-0.915,5.039-9.16,16.947-8.701,23.356c-6.412,0.917-14.126,14.653-25.613,11.451c-11.484-3.207-29.803-3.666-39.421,5.037
	c-9.619,8.702-10.074,9.614-12.822,6.87c-2.748-2.748-11.45-6.412-12.825,5.495c-0.458,4.122-1.833,4.581-4.121,2.746
	c-2.289-1.831-10.991-3.204-11.906,3.205c-0.92,6.415-5.958,4.122-7.788,3.21c-1.832-0.917-12.823-2.751-15.571,14.654
	c-2.748,17.399-15.569,23.619-11.907,35.627c3.665,12.002,4.581,17.5,13.739,25.282c9.16,7.785,14.655,27.479,34.806,35.267
	c-10.074,1.37-34.346,10.531-41.218,16.026c-9.159,2.749-73.276,10.534-89.764,13.741c-16.486,3.208-76.938,5.954-87.472,3.208
	c-10.533-2.752-70.528-5.039-81.519-4.583c-5.956,4.583-7.33,18.316,2.288,22.897c9.62,4.583,40.761,9.161,49.464,13.28
	c8.698,4.122,22.44,20.612,27.477,27.024c2.291,4.122,15.112,3.205,20.607-6.868c5.498-10.078,9.618-10.537,19.237-10.537
	c9.618,0,69.155,1.829,83.351,5.493c14.198,3.668,37.096-3.664,46.256-7.322c9.157-3.668,45.339-15.575,55.415-15.575
	c10.077,0,48.088,15.117,80.144,15.117c32.061,0,77.4,11.907,113.578-9.164c5.039-3.66,8.247-7.782,13.739-5.953
	c5.498,1.834,48.091,16.49,77.398,18.777c29.312,2.291,53.588,7.33,63.659,9.164c10.078,1.829,13.744-3.21,38.012-3.669
	c24.275-0.456,42.132-1.829,59.995-0.914c17.863,0.914,58.161,1.373,75.112,5.495c16.944,4.122,57.703,11.448,73.271,14.656
	c15.571,3.207,33.896,13.283,39.847,0c5.951-13.28,7.785-15.112,5.498-17.861c-2.293-2.751-21.988-16.029-43.972-20.151
	c-21.98-4.122-25.188-12.821-31.139-15.573c-5.953-2.743-26.103-4.119-32.973,8.703c-9.159-0.915-71.447-30.684-100.301-27.476
	c-18.316,0.456-35.261,5.039-40.3,7.326c-10.529-3.204-82.896-29.771-110.371-45.8c10.531-3.205,31.141-15.571,37.554-23.356
	c6.412-7.785,12.363-11.907,16.943-11.907c4.578,0,18.322,1.181,12.363-14.748c-5.954-15.935,8.706-7.237,12.372-8.149
	c3.658-0.917,1.832-8.244,7.324-13.283c5.5-5.036,14.198-7.327,17.864-8.7c0.912-3.207-3.205-10.534,2.746-16.029
	c5.039-5.494,4.128-16.943-12.824-12.821c-7.786,4.58-15.571,5.492-20.61,3.205c0,0-12.363-0.459-16.029-5.04
	c-3.658-4.577-7.786-5.036-13.278-3.663c-5.498,1.376-5.498-1.373-5.951-2.746c-0.461-1.376-10.54-5.954-20.618,2.29
	c-10.07,8.241-17.395,0.915-21.061-2.29c-3.666-3.207-12.369-6.415-16.946-2.749c-4.583,3.661-15.115-0.458-16.027,11.449
	c-3.666,2.749-17.408,2.749-15.573,0c1.829-2.749,4.581-13.28-6.868-15.115c0-5.492,4.117-32.059,5.49-42.59
	c1.378-10.533-8.241-19.69-10.99-24.272c-2.746-4.581-13.736-16.488-13.736-20.15c0-3.665-1.834-19.693,7.785-21.068
	c9.617-1.372,29.31-13.74,31.6-34.807c6.413,1.832,15.112-3.66,15.112-15.569c0-11.907-7.327-24.273-14.654-30.684
	C544.654,63.806,533.203,63.346,535.491,69.302z"/>
</svg>
